<?xml version="1.0" encoding="UTF-8"?>
<svg enable-background="new 0 0 423.543 235.713" viewBox="0 0 423.543 235.713" xmlns="http://www.w3.org/2000/svg">
 <path d="m8.003 126.69c-5.203 4.855-6.242 10.406-4.511 16.644 1.736 4.864-2.427 9.719 15.608 18.732 16.648 7.63 51.681 22.194 86.366 32.948 33.987 10.754 79.073 24.283 116.53 31.218 36.415 5.898 73.531 14.912 101.97 5.551 27.049-10.058 47.514-31.913 61.391-65.549-4.516-2.089-21.509-6.595-53.76-12.146-32.61-6.237-77.696-13.867-138.04-22.891-45.09-9.014-81.854-13.172-113.07-13.868-31.562-0.697-54.801 2.427-72.489 9.361z" fill-rule="evenodd" stroke="#000" stroke-miterlimit="10" stroke-width=".036"/>
 <path d="m379.46 168.66-107.87 61.729c13.183 2.775 27.398 2.09 41.275-2.079 14.218-5.203 31.218-14.217 43.007-24.273 10.753-11.104 19.081-21.162 23.587-35.377z" fill="#fff" fill-rule="evenodd" stroke="#000" stroke-miterlimit="10" stroke-width=".036"/>
 <path d="m267.44 228.31c-22.543-4.507-44.742-8.317-66.594-12.833-22.548-5.552-44.743-8.665-66.593-14.913-23.239-7.978-51.681-15.26-70.752-23.238-21.16-7.979-40.583-14.912-48.905-22.194-9.019-8.675-10.754-19.768 0.348-25.319 11.097-6.934 33.64-10.406 66.245-9.023 32.252 0.697 85.665 9.023 126.59 15.609 39.544 5.899 83.934 13.877 113.07 19.767 28.093 4.865 46.13 8.327 55.491 10.405-36.072 20.465-72.493 40.927-108.9 61.739z" fill="#fff" fill-rule="evenodd" stroke="#000" stroke-miterlimit="10" stroke-width=".036"/>
 <path d="m45.115,77.442c-10.057-3.815-16.3-3.472-20.115-2.775-4.511,1.735-2.427,5.551-3.124,10.057-1.731,3.124-4.164,5.551-4.506,11.097-1.736,4.512-5.204,14.569-1.045,20.812 3.472,5.89 13.877,10.058 23.239,15.261 9.019,3.82 24.627,6.934 31.91,12.137 6.59,4.168 1.736,14.573 9.366,18.036 6.934,2.775 23.582-3.463 32.6,1.393 7.979,3.462 7.631,20.802 14.917,23.926 6.243,1.74 13.178-8.665 22.195-8.665 7.287.348 19.772,3.811 26.706,9.013 5.9,4.507 5.551,11.102 14.918,15.609 10.057,2.775 28.436-.349 41.618,2.775 11.102,2.079 11.788,9.014 27.396,12.833 14.912,3.123 35.725,7.282 62.436,9.709 4.507-5.551 13.181-12.137 23.238-22.542 10.405-11.103 28.434-24.971 39.187-37.804 9.71-14.226 17.34-31.565 19.081-38.5-.697-6.595-11.45,1.383-13.53,0-2.079-2.775 3.472-10.406 1.731-12.146-2.775-1.726-8.317-1.726-16.644,1.393l-38.151,27.397c-97.811-22.881-195.617-45.781-293.423-69.016z" fill-rule="evenodd" stroke="#000" stroke-miterlimit="10" stroke-width=".036"/>
 <path d="m31.585,79.173c-3.467,4.511-6.586,10.063-7.974,15.26-2.427,5.204-7.287,10.754-3.815,16.648 2.775,4.86 16.3,9.371 21.852,13.53 4.854,2.079-1.736,4.506 5.546,7.282 6.242,3.124 27.054,6.934 32.948,11.441 5.204,3.819-6.243,11.102.349,13.878 6.241,2.079 26.014-1.731 35.375,1.73 7.63,3.82 5.898,16.653 12.141,19.777 5.546,1.731 14.565-7.282 21.503-6.943 6.243.695 12.137,5.899 17.688,9.022 4.856,1.731 10.754,1.383 14.914,4.507 3.123,2.427 3.123,7.978 7.978,11.45 5.203,2.078 13.182,4.158 22.543,4.854 8.327-.348 17.001-2.776 26.015-.696 6.934,1.731 5.898,7.979 19.419,12.137 13.181,3.472 32.947,6.247 60.704,9.71 15.26-12.834 27.746-22.543 38.838-31.904 9.719-9.71 17.688-13.181 25.318-22.543 6.595-10.754 17.35-30.869 18.731-36.072 .696-5.551-10.753,6.586-12.833,5.551-2.427-2.079.349-14.573-2.427-14.573-4.159-1.383-9.71,3.819-18.037,9.022-9.012,4.855-19.419,11.093-32.6,20.116-34.681-9.023-75.607-19.071-126.596-31.566-51.675-12.48-109.599-26.357-177.58-41.618z" fill="#fff" fill-rule="evenodd" stroke="#000" stroke-miterlimit="10" stroke-width=".036"/>
 <path d="m361.429,126.343c-15.609-.348-35.725.348-52.378.696-17.34-1.044-37.106-2.775-48.558-2.427-11.44-.348-14.912-.696-18.374,3.123-4.516,3.463-5.899,9.014-5.551,15.262-.349,5.889 2.079,11.092 8.665,16.991 6.247,3.82 17,6.247 33.644,8.675 16.306,1.731 45.436,4.507 62.088,5.541 15.957,1.741 23.239,1.741 32.601,2.775 8.326.349 13.529-2.079 19.767-3.462 5.551-2.775 9.37-8.675 12.833-12.484 3.472-4.517 4.517-12.147 4.517-16.306-1.392-5.899-5.551-11.102-12.484-14.216-8.677-3.124-22.205-4.516-36.77-4.168z" fill-rule="evenodd" stroke="#000" stroke-miterlimit="10" stroke-width=".036"/>
 <path d="m359.35,128.083c-15.262-.696-33.646.688-49.951,1.383-17.339-1.044-37.454-2.427-48.209-2.775-10.405-.696-14.216-1.383-16.991,2.08-4.159,2.775-5.899,7.282-5.203,13.529 0,5.203 1.044,11.103 8.326,16.305 6.586,4.159 16.993,5.204 32.602,8.317 15.26,1.741 44.39,4.517 60.693,5.551 14.564,1.731 22.892,1.731 31.565,2.775 8.316.349 13.521-2.078 19.768-3.471 4.854-3.114 9.013-7.631 12.484-12.137 2.079-5.899 5.203-10.755 4.159-15.957-1.731-5.542-4.507-7.969-12.137-11.093-9.361-2.079-22.194-4.855-37.106-4.507z" fill="#fff" fill-rule="evenodd" stroke="#000" stroke-miterlimit="10" stroke-width=".036"/>
 <path d="m264.32 158.6 3.123-3.471-2.079-2.08-0.35 3.114h-2.775l2.081 2.437z" fill-rule="evenodd" stroke="#000" stroke-miterlimit="10" stroke-width=".036"/>
 <path d="m260.49 140.22 3.124-3.473-2.078-2.427-0.697 3.471h-2.775l2.426 2.429z" fill-rule="evenodd" stroke="#000" stroke-miterlimit="10" stroke-width=".036"/>
 <path d="m268.472,137.097 2.775-.697-.687-1.035-2.427-.696 .339,2.428z" fill-rule="evenodd" stroke="#000" stroke-miterlimit="10" stroke-width=".036"/>
 <path d="m404.784,147.502c-1.394,4.158-2.429,11.102-3.125,12.833-1.035-.348 1.044-9.022 1.044-10.058-.694-1.044-1.74-.349-3.123,2.08-1.731.695-6.933,3.471-6.247,4.158-.339-.688 3.819-5.542 5.899-6.587 1.392-2.078 2.079-2.427 2.079-2.427-2.428-1.044-9.71-1.044-9.71-1.393 0-1.035 8.326,0 10.407-.687 .347-1.393-2.081-4.516-3.473-5.551-1.731-2.428-5.542-3.472-4.854-3.124-.349-.348 5.202.696 7.281,3.124 1.741,1.733 3.472,3.813 3.822,7.632z" fill-rule="evenodd" stroke="#000" stroke-miterlimit="10" stroke-width=".036"/>
 <path d="m356.22 141.6 3.125-3.462-2.081-2.427-0.347 3.462h-3.123l2.426 2.427z" fill-rule="evenodd" stroke="#000" stroke-miterlimit="10" stroke-width=".036"/>
 <path d="m382.588,146.11 2.775-.687-.696-1.045-2.428-.695 .349,2.427z" fill-rule="evenodd" stroke="#000" stroke-miterlimit="10" stroke-width=".036"/>
 <path d="m378.073,138.828 3.123-.348-.697-1.383-2.426-.697v2.428z" fill-rule="evenodd" stroke="#000" stroke-miterlimit="10" stroke-width=".036"/>
 <path d="m369.059,144.031 3.123-.348-.695-1.384-2.428-.696v2.428z" fill-rule="evenodd" stroke="#000" stroke-miterlimit="10" stroke-width=".036"/>
 <path d="m364.205,138.48 2.775-.339-.696-1.044-2.429-1.045 .35,2.428z" fill-rule="evenodd" stroke="#000" stroke-miterlimit="10" stroke-width=".036"/>
 <path d="m386.747,164.842 2.775-.348-.696-1.035-2.427-1.044 .348,2.427z" fill-rule="evenodd" stroke="#000" stroke-miterlimit="10" stroke-width=".036"/>
 <path d="m382.588,157.909 2.775-.696-.696-1.045-2.428-1.034 .349,2.775z" fill-rule="evenodd" stroke="#000" stroke-miterlimit="10" stroke-width=".036"/>
 <path d="m369.407,170.045 3.124-.696-.696-1.035-2.428-.696v2.427z" fill-rule="evenodd" stroke="#000" stroke-miterlimit="10" stroke-width=".036"/>
 <path d="m337.49 153.74h4.854l0.348-3.463-2.775 2.08-2.079-2.08-0.348 3.463z" fill-rule="evenodd" stroke="#000" stroke-miterlimit="10" stroke-width=".036"/>
 <path d="m301.42 150.63 3.123-3.473-2.079-2.079-0.348 3.124h-2.776l2.08 2.428z" fill-rule="evenodd" stroke="#000" stroke-miterlimit="10" stroke-width=".036"/>
 <path d="m348.6 152.01 3.123-0.696-0.696-1.035-2.427-1.044v2.775z" fill-rule="evenodd" stroke="#000" stroke-miterlimit="10" stroke-width=".036"/>
 <path d="m336.806,148.885 3.114-.338-.687-1.394-2.428-.695v2.427z" fill-rule="evenodd" stroke="#000" stroke-miterlimit="10" stroke-width=".036"/>
 <path d="m327.784,155.133 2.775-.349-.695-1.383-2.428-.696 .348,2.428z" fill-rule="evenodd" stroke="#000" stroke-miterlimit="10" stroke-width=".036"/>
 <path d="m323.625,147.851 2.775-.349-.696-1.393-2.429-.687 .35,2.429z" fill-rule="evenodd" stroke="#000" stroke-miterlimit="10" stroke-width=".036"/>
 <path d="m314.602,153.053 2.775-.348-.696-1.393-2.426-.687 .347,2.428z" fill-rule="evenodd" stroke="#000" stroke-miterlimit="10" stroke-width=".036"/>
 <path d="m309.4 147.5 3.125-0.349-0.697-1.044-2.428-1.035v2.428z" fill-rule="evenodd" stroke="#000" stroke-miterlimit="10" stroke-width=".036"/>
 <path d="m290.676,163.111 2.775-.695-.348-1.045-2.775-.687 .348,2.427z" fill-rule="evenodd" stroke="#000" stroke-miterlimit="10" stroke-width=".036"/>
 <path d="m286.509,155.829 2.775-.348-.349-1.393-2.775-.687 .349,2.428z" fill-rule="evenodd" stroke="#000" stroke-miterlimit="10" stroke-width=".036"/>
 <path d="m277.496,161.033 2.775-.349-.696-1.393-2.429-.688 .35,2.43z" fill-rule="evenodd" stroke="#000" stroke-miterlimit="10" stroke-width=".036"/>
 <path d="m272.29 155.48 3.124-0.348-0.696-1.045-2.428-1.035v2.428z" fill-rule="evenodd" stroke="#000" stroke-miterlimit="10" stroke-width=".036"/>
 <path d="m286.51 144.73 3.123-0.696-0.696-1.034-2.427-1.045v2.775z" fill-rule="evenodd" stroke="#000" stroke-miterlimit="10" stroke-width=".036"/>
 <path d="m282.35,137.445 3.124-.696-.696-1.035-2.428-1.044v2.775z" fill-rule="evenodd" stroke="#000" stroke-miterlimit="10" stroke-width=".036"/>
 <path d="m273.33 142.65 3.125-0.696-0.697-1.044-2.428-1.035v2.775z" fill-rule="evenodd" stroke="#000" stroke-miterlimit="10" stroke-width=".036"/>
 <path d="m360.385,160.684 3.123-3.472-2.079-2.428-.35,3.124-2.775.348 2.081,2.428z" fill-rule="evenodd" stroke="#000" stroke-miterlimit="10" stroke-width=".036"/>
 <path d="m373.566,162.763 2.775-.348-.696-1.045-2.429-1.035 .35,2.428z" fill-rule="evenodd" stroke="#000" stroke-miterlimit="10" stroke-width=".036"/>
 <path d="m368.362,157.56 2.775-.696-.347-1.035-2.775-1.044 .347,2.775z" fill-rule="evenodd" stroke="#000" stroke-miterlimit="10" stroke-width=".036"/>
 <path d="m340.96 163.11h4.506l0.349-3.471-2.775 2.079-2.079-2.079v3.471z" fill-rule="evenodd" stroke="#000" stroke-miterlimit="10" stroke-width=".036"/>
 <path d="m310.79 164.15h4.854v-3.113l-2.427 2.078-2.081-2.078-0.346 3.113z" fill-rule="evenodd" stroke="#000" stroke-miterlimit="10" stroke-width=".036"/>
 <path d="m323.28 140.57 3.125-0.695-0.696-1.045-2.429-1.035v2.775z" fill-rule="evenodd" stroke="#000" stroke-miterlimit="10" stroke-width=".036"/>
 <path d="m341.66 136.05 3.115-0.338-0.688-1.044-2.428-1.045v2.427z" fill-rule="evenodd" stroke="#000" stroke-miterlimit="10" stroke-width=".036"/>
 <path d="m298.306,136.052 2.775-.338-.694-1.044-2.429-1.045 .348,2.427z" fill-rule="evenodd" stroke="#000" stroke-miterlimit="10" stroke-width=".036"/>
 <path d="m300.04 159.99 3.125-0.696-0.697-1.035-2.428-1.044v2.775z" fill-rule="evenodd" stroke="#000" stroke-miterlimit="10" stroke-width=".036"/>
 <path d="m327.78 165.54 3.124-0.696-0.696-1.034-2.428-1.045v2.775z" fill-rule="evenodd" stroke="#000" stroke-miterlimit="10" stroke-width=".036"/>
 <path d="m254.95 152.71 3.115-0.348-0.688-1.045-2.428-1.035v2.428z" fill-rule="evenodd" stroke="#000" stroke-miterlimit="10" stroke-width=".036"/>
 <path d="m248.01 142.65 3.123-0.349-0.695-1.044-2.428-1.034v2.427z" fill-rule="evenodd" stroke="#000" stroke-miterlimit="10" stroke-width=".036"/>
 <path d="m240.04,153.402c5.891,2.079 9.361,1.383 9.014,1.731-.696-1.393-4.158-1.731-10.405-4.855-2.079-2.775-1.044-6.247-.696-6.595 1.044-1.384 4.168-.687 5.203-.687 0-1.045-2.428-1.394-5.891-2.429 4.159-3.123 6.586-5.551 7.282-5.898-.348-1.045-2.427,0-6.247,1.73-.695,4.167-.348,6.596-.348,10.058 0,3.125.696,4.517 2.088,6.945z" fill-rule="evenodd" stroke="#000" stroke-miterlimit="10" stroke-width=".036"/>
 <path d="m129.745,115.245c-15.609-.347-35.725.348-52.373.697-17.345-1.044-37.111-2.775-48.557-2.432-11.445-.343-14.917-.692-18.383,3.123-4.507,3.463-5.895,9.014-5.551,15.261-.344,5.899 2.083,11.103 8.674,16.992 6.243,3.82 16.992,6.248 33.641,8.675 16.304,1.731 45.438,4.507 62.086,5.551 15.952,1.731 23.234,1.731 32.6,2.775 8.326.349 13.525-2.078 19.767-3.471 5.551-2.775 9.367-8.675 12.833-12.486 3.472-4.506 4.511-12.137 4.511-16.304-1.387-5.89-5.551-11.102-12.484-14.216-8.672-3.124-22.2-4.512-36.764-4.165z" fill-rule="evenodd" stroke="#000" stroke-miterlimit="10" stroke-width=".036"/>
 <path d="m127.661,116.981c-15.262-.696-33.641.687-49.945,1.383-17.34-1.035-37.456-2.422-48.21-2.771-10.406-.695-14.221-1.388-16.997,2.075-4.159,2.785-5.895,7.282-5.198,13.53 0,5.203 1.039,11.102 8.322,16.305 6.59,4.158 16.997,5.203 32.601,8.326 15.265,1.731 44.398,4.507 60.698,5.542 14.565,1.74 22.891,1.74 31.562,2.775 8.327.349 13.524-2.079 19.771-3.462 4.854-3.124 9.014-7.631 12.486-12.146 2.079-5.89 5.202-10.745 4.158-15.947-1.731-5.551-4.507-7.979-12.137-11.102-9.365-2.08-22.199-4.856-37.111-4.508z" fill="#fff" fill-rule="evenodd" stroke="#000" stroke-miterlimit="10" stroke-width=".036"/>
 <path d="m32.63 147.5 3.466-3.472-2.427-2.428-0.348 3.472h-2.775l2.084 2.428z" fill-rule="evenodd" stroke="#000" stroke-miterlimit="10" stroke-width=".036"/>
 <path d="m28.814 129.12 3.119-3.471-2.079-2.427-0.349 3.471h-3.124l2.433 2.427z" fill-rule="evenodd" stroke="#000" stroke-miterlimit="10" stroke-width=".036"/>
 <path d="m36.789 126 2.774-0.688-0.69-1.044-2.428-0.697 0.344 2.429z" fill-rule="evenodd" stroke="#000" stroke-miterlimit="10" stroke-width=".036"/>
 <path d="m173.099,136.4c-1.389,4.167-2.433,11.102-3.125,12.833-1.039-.349 1.041-9.013 1.041-10.058-.692-1.035-1.736-.349-3.12,2.079-1.736.696-6.938,3.472-6.248,4.168-.343-.696 3.821-5.551 5.9-6.596 1.387-2.079 2.079-2.427 2.079-2.427-2.428-1.035-9.709-1.035-9.709-1.383 0-1.044 8.322,0 10.405-.696 .343-1.383-2.083-4.507-3.472-5.551-1.731-2.428-5.546-3.463-4.854-3.124-.349-.339 5.202.696 7.282,3.124 1.737,1.742 3.473,3.821 3.821,7.631z" fill-rule="evenodd" stroke="#000" stroke-miterlimit="10" stroke-width=".036"/>
 <path d="m124.54 130.51 3.12-3.472-2.081-2.427-0.348 3.471h-3.118l2.427 2.428z" fill-rule="evenodd" stroke="#000" stroke-miterlimit="10" stroke-width=".036"/>
 <path d="m150.899,135.017 2.776-.696-.697-1.035-2.428-.696 .349,2.427z" fill-rule="evenodd" stroke="#000" stroke-miterlimit="10" stroke-width=".036"/>
 <path d="m146.736,127.735 2.775-.348-.69-1.392-2.433-.688 .348,2.428z" fill-rule="evenodd" stroke="#000" stroke-miterlimit="10" stroke-width=".036"/>
 <path d="m137.375,132.938 3.12-.348-.692-1.393-2.428-.687v2.428z" fill-rule="evenodd" stroke="#000" stroke-miterlimit="10" stroke-width=".036"/>
 <path d="m132.515,127.387 2.776-.348-.692-1.044-2.427-1.036 .343,2.428z" fill-rule="evenodd" stroke="#000" stroke-miterlimit="10" stroke-width=".036"/>
 <path d="m155.062,153.741 2.775-.339-.695-1.044-2.428-1.045 .348,2.428z" fill-rule="evenodd" stroke="#000" stroke-miterlimit="10" stroke-width=".036"/>
 <path d="m150.9 146.81 2.776-0.696-0.697-1.035-2.428-1.044 0.349 2.775z" fill-rule="evenodd" stroke="#000" stroke-miterlimit="10" stroke-width=".036"/>
 <path d="m137.72 158.94 3.123-0.687-0.697-1.044-2.426-1.045v2.776z" fill-rule="evenodd" stroke="#000" stroke-miterlimit="10" stroke-width=".036"/>
 <path d="m105.81 142.65h4.854l0.349-3.472-2.775 2.079-2.081-2.079-0.347 3.472z" fill-rule="evenodd" stroke="#000" stroke-miterlimit="10" stroke-width=".036"/>
 <path d="m69.742 139.52 3.119-3.472-2.079-2.079-0.348 3.124h-2.775l2.079 2.427h4e-3z" fill-rule="evenodd" stroke="#000" stroke-miterlimit="10" stroke-width=".036"/>
 <path d="m116.91 140.91 3.118-0.687-0.69-1.045-2.428-1.035v2.767z" fill-rule="evenodd" stroke="#000" stroke-miterlimit="10" stroke-width=".036"/>
 <path d="m105.117,137.792 3.12-.348-.692-1.393-2.428-.687v2.428z" fill-rule="evenodd" stroke="#000" stroke-miterlimit="10" stroke-width=".036"/>
 <path d="m96.101,144.031 2.775-.696-.349-1.035-2.775-.696 .349,2.427z" fill-rule="evenodd" stroke="#000" stroke-miterlimit="10" stroke-width=".036"/>
 <path d="m91.937,136.749 2.775-.348-.692-1.383-2.431-.696 .348,2.427z" fill-rule="evenodd" stroke="#000" stroke-miterlimit="10" stroke-width=".036"/>
 <path d="m82.918,141.952 2.775-.349-.69-1.382-2.433-.697 .348,2.428z" fill-rule="evenodd" stroke="#000" stroke-miterlimit="10" stroke-width=".036"/>
 <path d="m77.716,136.4 3.123-.348-.696-1.035-2.426-1.044v2.427z" fill-rule="evenodd" stroke="#000" stroke-miterlimit="10" stroke-width=".036"/>
 <path d="m58.987,152.009 3.12-.696-.692-1.035-2.428-.696v2.427z" fill-rule="evenodd" stroke="#000" stroke-miterlimit="10" stroke-width=".036"/>
 <path d="m54.825,144.727 2.775-.349-.349-1.382-2.776-.697 .35,2.428z" fill-rule="evenodd" stroke="#000" stroke-miterlimit="10" stroke-width=".036"/>
 <path d="m45.807,149.929 2.775-.348-.692-1.383-2.427-.696 .344,2.427z" fill-rule="evenodd" stroke="#000" stroke-miterlimit="10" stroke-width=".036"/>
 <path d="m40.603,144.378 3.125-.348-.692-1.034-2.433-1.045v2.427z" fill-rule="evenodd" stroke="#000" stroke-miterlimit="10" stroke-width=".036"/>
 <path d="m55.172,133.625 2.775-.687-.696-1.045-2.427-1.044 .348,2.776z" fill-rule="evenodd" stroke="#000" stroke-miterlimit="10" stroke-width=".036"/>
 <path d="m50.666,126.343 3.12-.696-.692-1.035-2.428-1.035v2.766z" fill-rule="evenodd" stroke="#000" stroke-miterlimit="10" stroke-width=".036"/>
 <path d="m41.648,131.546 3.119-.696-.692-1.035-2.427-1.044v2.775z" fill-rule="evenodd" stroke="#000" stroke-miterlimit="10" stroke-width=".036"/>
 <path d="m128.7,149.582 3.123-3.472-2.079-2.427-.348,3.123-2.775.348 2.079,2.428z" fill-rule="evenodd" stroke="#000" stroke-miterlimit="10" stroke-width=".036"/>
 <path d="m141.881,151.661 2.775-.348-.697-1.035-2.426-1.044 .348,2.427z" fill-rule="evenodd" stroke="#000" stroke-miterlimit="10" stroke-width=".036"/>
 <path d="m136.68 146.46 2.775-0.687-0.347-1.045-2.428-1.044v2.776z" fill-rule="evenodd" stroke="#000" stroke-miterlimit="10" stroke-width=".036"/>
 <path d="m109.28 152.01h4.507l0.348-3.472-2.775 2.089-2.079-2.089v3.472z" fill-rule="evenodd" stroke="#000" stroke-miterlimit="10" stroke-width=".036"/>
 <path d="m79.103 153.05h4.854v-3.124l-2.427 2.08-2.079-2.08-0.348 3.124z" fill-rule="evenodd" stroke="#000" stroke-miterlimit="10" stroke-width=".036"/>
 <path d="m91.589,129.466 3.123-.696-.692-1.036-2.431-1.044v2.776z" fill-rule="evenodd" stroke="#000" stroke-miterlimit="10" stroke-width=".036"/>
 <path d="m109.973,124.95 3.119-.338-.692-1.035-2.426-1.054v2.437-.01z" fill-rule="evenodd" stroke="#000" stroke-miterlimit="10" stroke-width=".036"/>
 <path d="m66.619,124.95 2.775-.338-.696-1.035-2.428-1.054 .349,2.437v-.01z" fill-rule="evenodd" stroke="#000" stroke-miterlimit="10" stroke-width=".036"/>
 <path d="m68.353,148.885 3.12-.687-.692-1.045-2.428-1.044v2.776z" fill-rule="evenodd" stroke="#000" stroke-miterlimit="10" stroke-width=".036"/>
 <path d="m96.101,154.436 3.118-.695-.692-1.035-2.426-1.045v2.775z" fill-rule="evenodd" stroke="#000" stroke-miterlimit="10" stroke-width=".036"/>
 <path d="m23.264 141.6 3.119-0.348-0.691-1.034-2.428-1.045v2.427z" fill-rule="evenodd" stroke="#000" stroke-miterlimit="10" stroke-width=".036"/>
 <path d="m16.325,131.546 3.124-.348-.696-1.383-2.428-.696v2.427z" fill-rule="evenodd" stroke="#000" stroke-miterlimit="10" stroke-width=".036"/>
 <path d="m8.351,142.299c5.895,2.079 9.361,1.384 9.019,1.731-.696-1.383-4.163-1.731-10.406-4.854-1.388-2.776-1.039-6.238-.348-6.586 0-1.393 5.204-.697 4.855-.697 0-1.044-2.428-1.382-5.895-2.427 4.164-3.124 6.59-5.551 7.283-5.889-.349-1.054-2.427,0-6.243,1.73-.691,4.159-.348,6.586-.348,10.058-.001,3.115.695,4.508 2.083,6.934z" fill-rule="evenodd" stroke="#000" stroke-miterlimit="10" stroke-width=".036"/>
 <path d="m82.57,89.236c-.692,1.731-1.384,4.158-3.467,7.282-1.731,2.427-9.709,5.895-7.973,9.018 .343,2.08 7.281,3.816 11.44,6.591 2.776,2.771 3.472,4.854 7.287,10.057 2.079,4.159 5.894,10.406 10.058,17.34 4.505,6.248 11.097,19.768 15.608,20.464 2.77-.696 0-14.564 2.427-20.115 1.731-6.586 5.546-11.79 10.058-14.226 4.164-2.767 12.486-2.07 14.221-3.463-.348-3.123-6.591-8.327-7.978-11.445-1.736-3.816-2.079-6.591-1.04-9.714-16.648-3.816-33.645-7.631-50.641-11.789z" fill-rule="evenodd" stroke="#000" stroke-miterlimit="10" stroke-width=".036"/>
 <path d="m85.346,92.355c-.343,2.775-1.389,5.203-3.12,7.282-3.123,1.735-9.017,2.775-8.327,4.511-.343,1.388 9.019.692 12.143,3.467 3.119,2.427 5.894,7.283 8.322,9.018 1.387-.347 2.083-6.59 4.854-6.59 2.433,0 6.938,4.512 10.754,4.163 2.775-2.427 4.163-5.895 5.551-14.221-10.057-2.427-20.119-4.855-30.177-7.63z" fill="#fff" fill-rule="evenodd" stroke="#000" stroke-miterlimit="10" stroke-width=".036"/>
 <path d="m118.643,102.064c-.349,4.859-1.04,9.366-2.079,12.141-1.04,1.388-2.428,3.82-4.164,3.462-2.426-.338-9.708-3.811-11.097-2.423-2.426.348-4.511,3.467-2.426,9.367 1.73,5.899 9.708,22.194 13.176,24.97 2.083,1.393 1.044-11.789 3.472-15.608 1.387-4.855 5.894-9.023 9.709-11.093 2.775-2.089 11.794-1.044 12.486-2.089-.692-2.766-7.282-8.665-9.019-11.093-1.731-3.123-1.731-5.551 0-7.286-3.12.001-6.586.001-10.058-.348z" fill="#fff" fill-rule="evenodd" stroke="#000" stroke-miterlimit="10" stroke-width=".036"/>
 <path d="m220.611,118.712c-17.688-.348-28.093,0-33.986,2.427-5.896,2.08.348,6.248 0,11.102-1.389,4.507-9.368,11.441-6.593,15.261 1.736,2.427 7.979,3.124 18.729,2.079-2.771,2.776-2.081,3.82 3.471,6.935 4.507,2.775 19.076,3.819 26.358,6.943 6.247,2.775 10.754,8.317 13.529,7.282 1.383-3.472-1.74-13.529 1.383-20.813 2.775-6.933 9.37-14.563 18.384-21.507-13.529-3.113-27.397-6.237-41.275-9.709z" fill-rule="evenodd" stroke="#000" stroke-miterlimit="10" stroke-width=".036"/>
 <path d="m220.96,121.14c-13.873-.348-22.544-1.383-27.398.697-4.859,1.044-.348,3.471-1.044,7.282-2.079,3.472-9.361,10.754-7.282,13.878 1.039,3.113 8.326,3.81 18.036,3.462-2.428,3.471-2.428,6.595 0,7.978 1.73,1.731 9.361,1.731 12.138,0 1.044-4.158-4.16-15.956-2.081-18.036s10.407,4.507 14.218,3.821c3.472-2.08 4.167-6.935 4.854-14.574-3.811-1.384-7.626-2.768-11.441-4.508z" fill="#fff" fill-rule="evenodd" stroke="#000" stroke-miterlimit="10" stroke-width=".036"/>
 <path d="m237.6 126.34 17.697 2.775c-6.248 2.775-11.103 5.899-13.182 9.362-3.124 2.775-2.08 6.247-2.08 10.405-0.348 3.473-1.044 11.799-2.088 14.226-3.114 1.384-9.709-4.168-11.789-4.507-3.123-0.348-3.123 1.384-4.163 0-2.079-4.168-6.935-14.573-5.203-16.652 1.736-1.044 5.551 5.202 10.063 6.586 2.428-0.687 4.159-4.159 6.586-7.63 1.731-4.159 3.124-9.014 4.159-14.565z" fill="#fff" fill-rule="evenodd" stroke="#000" stroke-miterlimit="10" stroke-width=".036"/>
 <path d="m156.79 135.37 9.019-11.45 10.754-6.586 2.426 20.463-7.978 6.238-14.222 7.979v-16.644z" fill-rule="evenodd" stroke="#000" stroke-miterlimit="10" stroke-width=".036"/>
 <path d="m158.88 135.71 11.445-7.979v14.217l-11.445 7.282v-13.52z" fill="#fff" fill-rule="evenodd" stroke="#000" stroke-miterlimit="10" stroke-width=".036"/>
 <path d="m172.06 126.34 4.163-5.551 1.04 16.306-4.505 3.124-0.698-13.879z" fill="#fff" fill-rule="evenodd" stroke="#000" stroke-miterlimit="10" stroke-width=".036"/>
 <path d="m174.14 120.1-7.63 4.864-6.939 9.014 11.098-7.978 3.471-5.9z" fill="#fff" fill-rule="evenodd" stroke="#000" stroke-miterlimit="10" stroke-width=".036"/>
 <path d="m57.948 106.92 12.833 6.243 9.019 8.67-19.424 7.282-7.979-6.595-10.749-12.132 16.3-3.468z" fill-rule="evenodd" stroke="#000" stroke-miterlimit="10" stroke-width=".036"/>
 <path d="m57.948 108.66 10.405 9.709-14.22 3.124-9.366-9.709 13.181-3.124z" fill="#fff" fill-rule="evenodd" stroke="#000" stroke-miterlimit="10" stroke-width=".036"/>
 <path d="m70.084 119.76 5.9 2.766-15.262 4.516-4.162-3.819 13.524-3.463z" fill="#fff" fill-rule="evenodd" stroke="#000" stroke-miterlimit="10" stroke-width=".036"/>
 <path d="m76.675 120.1-6.591-6.238-10.405-4.854 10.063 9.023 6.933 2.069z" fill="#fff" fill-rule="evenodd" stroke="#000" stroke-miterlimit="10" stroke-width=".036"/>
 <path d="m257.03 181.83 14.563 1.044 11.451 5.203-15.608 13.529-9.709-3.123-14.574-7.283 13.877-9.37z" fill-rule="evenodd" stroke="#000" stroke-miterlimit="10" stroke-width=".036"/>
 <path d="m258.07 183.58 12.834 5.203-11.79 7.979-12.485-5.552 11.441-7.63z" fill="#fff" fill-rule="evenodd" stroke="#000" stroke-miterlimit="10" stroke-width=".036"/>
 <path d="m272.99 189.46 6.935 0.349-12.833 10.058-5.204-2.08 11.102-8.327z" fill="#fff" fill-rule="evenodd" stroke="#000" stroke-miterlimit="10" stroke-width=".036"/>
 <path d="m279.58 187.73-8.327-3.472-11.439-1.034 12.484 4.854 7.282-0.348z" fill="#fff" fill-rule="evenodd" stroke="#000" stroke-miterlimit="10" stroke-width=".036"/>
 <path d="m319.46 152.01c-24.273-5.899-52.366-11.788-84.28-19.071-34.332-7.292-77.686-16.306-109.94-23.24-31.908-7.978-62.082-13.877-79.77-20.463s-26.015-12.49-28.79-19.08c-4.507-7.974-4.854-19.077 4.511-28.089 8.322-11.102 26.01-24.279 48.9-31.565 21.852-6.934 45.783-13.177 86.366-9.362 40.229 2.08 108.56 12.485 153.99 27.05 44.736 13.877 81.505 33.296 113.07 58.271l-80.471 72.144c-7.629-2.088-15.608-4.168-23.587-6.595z" fill-rule="evenodd" stroke="#000" stroke-miterlimit="10" stroke-width=".036"/>
 <path d="m340.96 155.13c-3.124-6.935-3.472-15.261-2.428-26.363 0.348-11.789 1.731-30.865 8.326-41.271 6.238-11.445 15.947-22.542 29.13-22.542 12.484 0 25.317 6.934 42.318 22.194-25.664 22.548-51.331 45.091-77.346 67.982z" fill="#fff" fill-rule="evenodd" stroke="#000" stroke-miterlimit="10" stroke-width=".036"/>
 <path d="m377.38 60.098c-28.79-13.873-60.354-24.622-94.687-33.64-36.768-9.715-78.386-18.385-114.11-20.464-36.072-3.124-70.408-0.696-95.031 7.283-24.975 8.326-46.826 24.97-52.028 37.802-6.586 11.103-0.692 19.424 16.304 28.791 17.34 8.67 52.716 14.221 87.401 23.239 32.257 7.631 75.959 16.3 110.99 24.626 35.725 8.666 67.289 15.6 99.89 24.623-2.427-15.609-2.427-28.094 0-41.276 2.428-14.216 6.586-25.318 13.868-34.68 6.944-9.365 15.608-13.529 27.407-16.304z" fill="#fff" fill-rule="evenodd" stroke="#000" stroke-miterlimit="10" stroke-width=".036"/>
 <path d="m66.619,49.349c-3.816,2.079-4.507,5.203-4.856,6.59 .349,1.731 2.428,3.467 4.856,3.815 1.04-.348 2.775-3.815 3.815-4.859 0-2.08 1.04-4.855.348-6.934-1.388.348-2.776.691-4.163,1.388z" fill-rule="evenodd" stroke="#000" stroke-miterlimit="10" stroke-width=".036"/>
 <path d="m69.045,50.04c-1.387-.691-4.854,3.124-5.202,4.855-1.041.696-.692,2.083 1.04,2.775 .695,0 2.426,0 3.815-1.388 0-2.427 1.044-5.894.347-6.242z" fill="#fff" fill-rule="evenodd" stroke="#000" stroke-miterlimit="10" stroke-width=".036"/>
 <path d="m107.545,31.313c-1.04,4.506-.692,6.242 1.039,7.978 .697.344 4.512,0 6.243-1.044 .696-1.04 0-5.198-.692-5.895-.697-1.736-2.775-3.815-4.854-4.855-.349,1.04-1.044,2.428-1.736,3.816z" fill-rule="evenodd" stroke="#000" stroke-miterlimit="10" stroke-width=".036"/>
 <path d="m109.281,30.273c-.697.691-1.044,4.854.343,6.934 .697.696 1.04,1.04 2.428,1.04 .347-1.383 1.387-2.08 1.736-3.467-1.039-2.08-3.815-4.855-4.507-4.507z" fill="#fff" fill-rule="evenodd" stroke="#000" stroke-miterlimit="10" stroke-width=".036"/>
 <path d="m167.199,71.543c-3.815-.344-7.281,1.388-7.63,2.427-1.039,1.736 0,4.163 1.736,5.899 .343.349 4.164-.696 5.894-1.736 1.736-1.388 3.125-2.775 4.164-5.546-1.389-.348-2.776-.695-4.164-1.044z" fill-rule="evenodd" stroke="#000" stroke-miterlimit="10" stroke-width=".036"/>
 <path d="m168.587,73.279c-1.389-1.388-5.894.348-6.939,1.388-2.079.348-1.04,1.735-.69,2.775 0,.691 1.736,1.04 3.815,1.04 1.735-1.388 3.467-4.855 3.814-5.203z" fill="#fff" fill-rule="evenodd" stroke="#000" stroke-miterlimit="10" stroke-width=".036"/>
 <path d="m216.104,65.3c-3.814-2.079-5.898-3.467-7.63-2.775-2.083.348-2.775,4.163-2.083,5.899 0,1.039 3.123,1.731 5.551,2.079 1.736.349 4.512-.691 6.938-1.73-.695-1.045-1.735-2.085-2.776-3.473z" fill-rule="evenodd" stroke="#000" stroke-miterlimit="10" stroke-width=".036"/>
 <path d="m216.104,67.728c-.348-1.382-5.551-3.467-6.241-3.467-1.389-1.04-2.085,1.04-2.085,2.084 0,.343.349,2.771 2.428,3.118 1.388-.347 5.204-1.387 5.898-1.735z" fill="#fff" fill-rule="evenodd" stroke="#000" stroke-miterlimit="10" stroke-width=".036"/>
 <path d="m261.19,86.46c-3.123-1.736-6.934-2.775-7.63-1.736-2.079-.348-2.079,4.855-1.382,6.243 .694,1.388 3.123,1.388 5.889,1.388 1.741,0 3.819-1.388 6.248-2.776l-3.125-3.119z" fill-rule="evenodd" stroke="#000" stroke-miterlimit="10" stroke-width=".036"/>
 <path d="m261.886,88.887c-.696-1.735-5.551-3.123-6.585-2.775-2.089-.348-2.775,1.388-2.089,2.428-.34.696 1.044,2.079 2.775,2.775 1.392-.348 5.203-2.428 5.899-2.428z" fill="#fff" fill-rule="evenodd" stroke="#000" stroke-miterlimit="10" stroke-width=".036"/>
 <path d="m265.697,67.385c-.688-3.124-.338-5.551-1.731-5.899-1.731-1.388-4.157.348-4.507,1.388-1.392.697.35,2.084 1.384,4.164 .697.691 2.427,1.736 3.82,3.119 .346-.694.696-1.733 1.034-2.772z" fill-rule="evenodd" stroke="#000" stroke-miterlimit="10" stroke-width=".036"/>
 <path d="m264.315,68.424c0-.349-.697-5.203-.697-5.203-1.034-1.388-1.731-1.039-2.078-.348-.697.697-2.429.697-1.046,2.775 .696.697 2.437,2.08 3.821,2.776z" fill="#fff" fill-rule="evenodd" stroke="#000" stroke-miterlimit="10" stroke-width=".036"/>
 <path d="m336.806,59.406c-3.819-1.04-6.942-.696-7.979,1.04-1.392.696-.695,4.512.688,6.242 .349.697 4.168,0 5.899-.691 1.392-1.04 3.123-2.084 5.202-4.512-1.043-.691-2.426-1.387-3.81-2.079z" fill-rule="evenodd" stroke="#000" stroke-miterlimit="10" stroke-width=".036"/>
 <path d="m337.841,61.485c-1.383-.691-5.898-.691-6.934,0-1.731.697-2.08,1.04-1.044,2.427 .348,0 1.044,2.084 3.471,2.084 1.384-1.038 3.811-3.814 4.507-4.511z" fill="#fff" fill-rule="evenodd" stroke="#000" stroke-miterlimit="10" stroke-width=".036"/>
 <path d="m263.965,37.207c.697,4.511.697,6.591 2.775,7.63 1.045.696 4.16-1.388 5.552-2.427 .349-1.388-.697-4.507-1.731-5.546-1.045-1.388-3.471-3.124-5.898-3.815 0,1.382-.348,2.77-.698,4.158z" fill-rule="evenodd" stroke="#000" stroke-miterlimit="10" stroke-width=".036"/>
 <path d="m265.697,35.476c-1.382.691.348,4.854 1.394,6.934 .348.696 1.729,1.388 2.775.696 .695-1.04 1.035-2.776 1.035-3.815-1.385-2.427-4.857-4.164-5.204-3.815z" fill="#fff" fill-rule="evenodd" stroke="#000" stroke-miterlimit="10" stroke-width=".036"/>
 <path d="m203.272,28.189c-2.428,1.736-3.467,3.124-3.124,4.163-.692,1.04 1.736,1.388 3.124,2.427 1.04-.691 1.388-2.079 2.427-2.775 .35-1.388 0-3.467.35-4.854-.698.347-1.737.695-2.777,1.039z" fill-rule="evenodd" stroke="#000" stroke-miterlimit="10" stroke-width=".036"/>
 <path d="m205.002,28.537c-1.73.348-2.427,1.04-3.466,3.467-1.04.696-.345.696.695,1.388 .691,0 1.04-.691 2.428-.691 .343-2.085.001-3.468.343-4.164z" fill="#fff" fill-rule="evenodd" stroke="#000" stroke-miterlimit="10" stroke-width=".036"/>
 <path d="m158.878,27.845c.343,3.815 1.387,6.243 3.119,7.282 2.083,1.04 3.472-2.427 5.551-2.427-.349-1.388-1.04-4.511-2.079-5.551-1.046-1.388-3.472-3.119-5.9-3.816 0,1.388-.347,2.776-.691,4.512z" fill-rule="evenodd" stroke="#000" stroke-miterlimit="10" stroke-width=".036"/>
 <path d="m160.266,26.109c-1.736.692 1.04,4.855 1.731,6.939 .347,1.039 1.736.691 2.775.343 .697-1.731 1.04-3.119 1.04-4.159-1.04-2.431-5.546-3.47-5.546-3.123z" fill="#fff" fill-rule="evenodd" stroke="#000" stroke-miterlimit="10" stroke-width=".036"/>
 <path d="m301.769,92.703c2.079-1.736 3.472-3.124 4.169-4.163-.35-1.388-2.775-3.816-3.125-3.119-1.392-.349-3.472.691-3.472,3.119-1.383,1.039-.686,3.123-.686,4.854 1.035,0 2.079-.348 3.114-.691z" fill-rule="evenodd" stroke="#000" stroke-miterlimit="10" stroke-width=".036"/>
 <path d="m300.038,92.006c.696-.344 2.08-2.771 4.159-3.119-.349-.696 0-1.735-.349-1.735-1.035-.692-2.427-1.04-2.767.348-1.74.691-2.087,3.467-1.043,4.506z" fill="#fff" fill-rule="evenodd" stroke="#000" stroke-miterlimit="10" stroke-width=".036"/>
 <path d="m235.176,35.127c2.088-1.736 3.472-3.124 4.168-4.163-.349-1.388-2.775-3.815-3.124-3.119-1.383-.348-3.473.692-3.473,3.119-1.382,1.04-.686,3.124-.686,4.854 1.036.001 2.08-.342 3.115-.691z" fill-rule="evenodd" stroke="#000" stroke-miterlimit="10" stroke-width=".036"/>
 <path d="m233.445,34.431c.696-.691 2.079-2.079 4.159-2.771 .695-1.387-.34-2.083-.34-2.083-.695-.692-3.471-1.04-3.123.348-1.044.691-1.74,3.467-.696,4.506z" fill="#fff" fill-rule="evenodd" stroke="#000" stroke-miterlimit="10" stroke-width=".036"/>
 <path d="m159.569,49c-.69-3.119-2.079-4.854-2.775-5.203-1.731-.692-4.507,0-4.158,2.083-.697.692 0,2.427 2.079,3.81 .692,1.045 2.079,1.388 4.164,2.433-.001-1.044.343-2.083.69-3.123z" fill-rule="evenodd" stroke="#000" stroke-miterlimit="10" stroke-width=".036"/>
 <path d="m158.182,50.388c-.692-.697-.692-4.507-1.389-4.855-1.04-1.387-1.731-1.039-2.079-.347-1.039.347-1.736,1.388-.696,3.123 0,0 3.125,2.079 4.164,2.079z" fill="#fff" fill-rule="evenodd" stroke="#000" stroke-miterlimit="10" stroke-width=".036"/>
 <path d="m101.994,56.283c2.083-1.731 3.472-3.119 4.163-4.159-.348-1.388-2.426-3.815-3.466-3.124-1.736-.349-2.775.691-3.125,3.124-.348,1.04-1.04,3.119-.69,4.854 1.04.001 2.079-.348 3.118-.695z" fill-rule="evenodd" stroke="#000" stroke-miterlimit="10" stroke-width=".036"/>
 <path d="m100.263,55.939c0-.696 3.119-1.736 4.158-3.124 0-1.388-.69-2.079-.69-2.079-1.04-.696-2.428-1.045-2.776.343-1.039.349-1.736,4.164-.692,4.86z" fill="#fff" fill-rule="evenodd" stroke="#000" stroke-miterlimit="10" stroke-width=".036"/>
 <path d="m72.17,29.577c0-3.119-.349-5.546-1.04-5.895-1.736-1.04-4.164-.691-4.512,1.039-1.041.349-.349,2.776.69,4.512 0,1.383 2.085,2.08 3.472,3.467 .35-1.04.693-2.084 1.39-3.123z" fill-rule="evenodd" stroke="#000" stroke-miterlimit="10" stroke-width=".036"/>
 <path d="m70.781,30.616c-.348-1.04 0-4.159-.348-5.198-1.04-1.044-1.736-1.736-2.081-.697-1.044.697-1.387.697-1.044,2.776 1.045,1.388 1.737,2.428 3.473,3.119z" fill="#fff" fill-rule="evenodd" stroke="#000" stroke-miterlimit="10" stroke-width=".036"/>
 <path d="m205.351,179.407c-2.775-1.384-10.405-2.079-13.525-3.462-4.162-1.393-10.405-3.124-10.753-5.203-.691-2.079 1.388-6.247 4.854-7.282 2.775-3.472 6.591-4.168 10.063-3.472 2.079.696 4.854,6.934 6.934,10.754 1.04,2.428 4.512,5.898 4.854,7.63 0,.696-.343,1.035-2.427,1.035z" fill-rule="evenodd" stroke="#000" stroke-miterlimit="10" stroke-width=".036"/>
 <path d="m205.002,178.372c-3.118-1.044-6.586-1.393-10.4-2.427-3.815-2.08-8.327-2.08-9.714-3.82-1.731-1.73-2.775-3.123-1.731-4.158 .69-2.08 3.118-3.124 5.894-4.507 1.389-1.393 3.125-3.472 5.204-2.427 .691-.349 1.735,2.427 3.118,4.506 .696,1.383 2.433,3.811 3.819,5.899 .692,1.034 3.468,4.158 4.507,5.541 0,1.393 1.04,1.393-.697,1.393z" fill="#fff" fill-rule="evenodd" stroke="#000" stroke-miterlimit="10" stroke-width=".036"/>
 <path d="m185.58 168.31c-0.348 0 3.467 1.731 6.242 3.811 1.04 1.045 6.936 1.74 6.936 2.079-1.389-0.339-5.896-2.766-7.975-3.114-3.471-1.741-5.203-3.124-5.203-2.776z" fill-rule="evenodd" stroke="#000" stroke-miterlimit="10" stroke-width=".036"/>
 <path d="m189.4,165.539c-.697,0 1.729,1.731 3.466,3.811 .349,1.74 6.939,3.123 6.59,4.168-.347-.348-5.551-4.854-6.241-5.551-1.389-1.394-4.856-3.472-3.815-2.428z" fill-rule="evenodd" stroke="#000" stroke-miterlimit="10" stroke-width=".036"/>
 <path d="m192.518,163.459c1.044.687 1.736,3.462 3.472,4.507-.349-1.394-1.388-2.08-1.735-3.472-1.389-1.731-2.429-2.078-1.737-1.035z" fill-rule="evenodd" stroke="#000" stroke-miterlimit="10" stroke-width=".036"/>
 <path d="m51.357,142.997-1.736,7.281c4.164,3.463 7.979,5.203 11.446,7.979 2.431,2.079 4.163,2.428 9.017,4.854 4.164,2.08 11.102,2.428 19.424,4.855-2.426,1.73-1.736,3.472-.69,3.811 1.73-.339 3.815,0 9.012-.339 3.821-.696 11.451-.696 14.918-1.393 2.427-1.731.69-4.159 0-5.899-1.388-1.383-5.203-4.506-10.058-5.542-5.551-3.123-13.873-5.898-22.199-8.326-9.018-2.776-18.728-5.203-29.134-7.281z" fill-rule="evenodd" stroke="#000" stroke-miterlimit="10" stroke-width=".036"/>
 <path d="m90.897,171.089c-1.389,0-2.079-.695-2.079-.695-.349-1.045-.349-1.731 1.382-2.08 .697-1.393 3.125-3.123 5.9-3.819 2.079-1.731 4.505-3.124 7.281-2.775 2.428-.349 4.164-.349 6.592,1.392 1.387.697 2.426,1.035 3.123,2.428 .692.696-.348,1.731-.348,3.124-1.388,0-4.856.339-6.243,1.034-3.125.697-5.551-.348-7.287.697-2.428-.349-2.771-.349-3.815,0-2.078-.35-3.119.347-4.506.694z" fill="#fff" fill-rule="evenodd" stroke="#000" stroke-miterlimit="10" stroke-width=".036"/>
 <path d="m108.237,164.495c-1.731-1.035-4.16-1.384-5.896-1.035-2.775.349-4.854,1.383-7.63,3.113 2.079-1.034 4.507-2.765 7.282-2.427 1.737-1.035 3.816,0 6.244.349z" fill-rule="evenodd" stroke="#000" stroke-miterlimit="10" stroke-width=".036"/>
 <path d="m106.853,166.235c-1.736-.349-3.123-.349-4.162,0-1.389.338-3.472.338-4.861,1.383 1.046-.348 2.433,0 4.164-.348 1.04-.697 3.123-1.035 4.859-1.035z" fill-rule="evenodd" stroke="#000" stroke-miterlimit="10" stroke-width=".036"/>
 <path d="m52.049,144.031c7.287,1.393 13.181,3.123 19.081,5.203 5.197,1.393 9.708,2.427 14.912,4.507 4.854,1.393 9.361,3.123 13.524,5.202 2.428,1.393 4.511,1.045 4.854,1.741-2.427-1.044-4.158-.349-6.591.687s-5.546,2.438-7.973,5.551c-3.125-.687-5.9-.687-8.327-1.383-2.771-.696-6.243-2.079-9.018-2.775-3.467-1.73-6.243-2.775-9.71-4.507-3.815-2.428-8.327-4.854-12.137-8.675 1.731,1.045 5.546,2.428 7.631,4.159 2.079,1.044 3.119,2.427 7.281,4.168 3.468,1.034 8.322,2.427 14.565,4.158-4.507-1.731-9.709-2.775-12.833-4.507-4.507-2.427-7.282-3.819-9.709-5.551-3.125-1.731-4.507-2.428-5.551-3.472 4.512,2.437 8.327,4.516 12.833,6.247 3.47,1.731 6.248,1.731 11.102,3.819 3.467,1.731 9.018,1.731 13.873,3.812-3.125-1.731-6.59-3.124-10.405-4.159-4.164-1.393-10.058-4.516-13.875-5.551-4.51-1.393-9.366-4.507-13.181-5.552 3.467.697 6.59,2.08 9.366,2.775 2.775.349 3.815,1.045 5.896,2.08-4.856-1.731-8.322-4.158-10.407-4.507-3.119-.696-4.505-2.079-5.546-1.393 .001-.685.001-1.381.345-2.077z" fill="#fff" fill-rule="evenodd" stroke="#000" stroke-miterlimit="10" stroke-width=".036"/>
 <path d="m.025,109.003c4.855-.348 10.753.696 14.917,3.124 4.158,2.079 7.974,6.237 11.445,9.709 2.08,2.079 3.468,5.203 4.159,6.586 0-3.811.697-6.934.697-9.361-.349-3.119-.349-4.507 0-5.551 0-5.199-2.776-9.709-4.512-12.137-2.775-3.123-7.282-4.164-10.749-4.506-4.512-.348-8.327,0-12.833,2.427-1.04,3.119-2.085,6.242-3.124,9.709z" fill-rule="evenodd" stroke="#000" stroke-miterlimit="10" stroke-width=".036"/>
 <path d="m2.109,107.615h3.467c-.348-2.427.349-4.163.691-5.203 0-1.736 1.045-2.775 1.736-3.119-1.04,1.04-1.04,2.427-1.388,4.159-.348,1.044.348,3.124.697,4.859l2.771.344c-.692-1.04-.692-3.815 0-4.507 0-1.04.696-3.815 2.083-4.511-1.044,1.04-1.044,2.427-1.388,4.163 0,1.04-.347,3.123.344,4.854 1.044-.344 2.775,1.388 3.82,1.388 .692,1.04 2.08.348 2.771,1.736 0-2.08-.343-4.512.349-5.899 .696-2.079 1.039-3.119 2.427-4.507-.691,2.428-1.731,4.163-1.731,6.591-.696,1.735-.696,3.119 0,4.164 0,.343.691.343 2.079,1.383 .692.696 2.427,2.432 3.815,3.82-.696-2.432-.696-3.82 0-5.551 .692-1.736 1.04-3.124 2.428-4.164-1.04,2.427-1.04,4.164-1.388,6.59-.348,1.736.348,2.776.696,4.507 1.04.349.344,1.044 1.731,2.079-.344.348 1.388,1.731 1.388,2.786 .349-4.516.349-8.332 0-11.45-.348-3.472-1.04-6.248-2.08-8.327-1.735-2.775-3.815-3.815-6.242-4.507-3.124-1.388-5.899-2.427-8.326-1.736-2.776,0-6.243.348-9.019,2.427-.348,2.429-1.04,4.856-1.731,7.631z" fill="#fff" fill-rule="evenodd" stroke="#000" stroke-miterlimit="10" stroke-width=".036"/>
 <path d="m14.942,107.267c-.348-1.388.343-2.079.692-3.467 .348-1.736 1.04-2.775 2.079-4.507-1.73,1.04-2.771,2.427-3.118,4.159-1.041,1.736-.001,1.736.347,3.815z" fill-rule="evenodd" stroke="#000" stroke-miterlimit="10" stroke-width=".036"/>
 <path d="m22.916,111.779c-.692-1.736-.692-3.815 0-4.855 0-1.735.696-2.427 2.083-3.471-2.083,1.736-3.815,2.775-3.815,4.511-.696,1.039.344,2.775 1.732,3.815z" fill-rule="evenodd" stroke="#000" stroke-miterlimit="10" stroke-width=".036"/>
 <path d="m297.26 213.75 12.833-6.586 12.486-2.088-6.238 20.115-9.72 2.088-16.295 1.731 6.934-15.26z" fill-rule="evenodd" stroke="#000" stroke-miterlimit="10" stroke-width=".036"/>
 <path d="m298.99 214.79 13.53-2.437-5.9 13.181-13.172 1.74 5.542-12.494v0.01z" fill="#fff" fill-rule="evenodd" stroke="#000" stroke-miterlimit="10" stroke-width=".036"/>
 <path d="m314.6 212.02 5.898-3.472-5.201 15.261-5.552 1.044 4.855-12.833z" fill="#fff" fill-rule="evenodd" stroke="#000" stroke-miterlimit="10" stroke-width=".036"/>
 <path d="m319.11 206.81-9.014 1.383-10.058 5.551 13.53-2.775 5.542-4.159z" fill="#fff" fill-rule="evenodd" stroke="#000" stroke-miterlimit="10" stroke-width=".036"/>
 <path d="m146.04 179.75 3.118-10.753 6.243-7.969 11.445 12.832-4.158 6.935-9.018 10.058-7.63-11.103z" fill-rule="evenodd" stroke="#000" stroke-miterlimit="10" stroke-width=".036"/>
 <path d="m148.12 179.07 6.59-9.022 6.591 9.709-7.287 8.327-5.894-9.014z" fill="#fff" fill-rule="evenodd" stroke="#000" stroke-miterlimit="10" stroke-width=".036"/>
 <path d="m155.75 168.66 1.04-5.203 8.327 10.405-2.776 3.812-6.591-9.014z" fill="#fff" fill-rule="evenodd" stroke="#000" stroke-miterlimit="10" stroke-width=".036"/>
 <path d="m154.71 163.46-4.507 5.89-2.433 8.674 6.243-9.021 0.697-5.543z" fill="#fff" fill-rule="evenodd" stroke="#000" stroke-miterlimit="10" stroke-width=".036"/>
 <path d="m29.158 102.76 3.124-10.754 6.242-7.974 11.794 12.833-4.511 6.934-9.018 10.057-7.631-11.096z" fill-rule="evenodd" stroke="#000" stroke-miterlimit="10" stroke-width=".036"/>
 <path d="m31.243 102.06 6.589-9.019 6.587 9.714-6.935 8.67-6.241-9.365z" fill="#fff" fill-rule="evenodd" stroke="#000" stroke-miterlimit="10" stroke-width=".036"/>
 <path d="m38.873 91.663 1.04-5.203 8.322 10.406-2.771 3.815-6.591-9.018z" fill="#fff" fill-rule="evenodd" stroke="#000" stroke-miterlimit="10" stroke-width=".036"/>
 <path d="m37.832,86.46-4.511,5.895-2.427,8.67 6.591-9.019 .347-5.546z" fill="#fff" fill-rule="evenodd" stroke="#000" stroke-miterlimit="10" stroke-width=".036"/>
 <path d="m289.632,142.299c-17.688-.696-28.093.697-33.993,2.775-5.89,2.079.349,6.238 0,11.093-1.383,3.82-9.361,11.45-6.586,14.922 1.731,2.428 7.979,3.114 18.732,2.08-2.776,2.775-2.089,3.81 3.462,6.934 4.507,2.079 19.081,4.507 26.363,7.282 6.237,2.079 10.753,7.979 13.528,6.943 1.035-2.437-1.044-14.226 1.731-20.464 3.125-7.63 8.676-14.922 18.037-21.855-13.529-3.124-27.397-6.237-41.274-9.71z" fill-rule="evenodd" stroke="#000" stroke-miterlimit="10" stroke-width=".036"/>
 <path d="m289.98,145.075c-13.528-1.044-22.542-1.392-27.049.349-4.864,1.383-.348,3.462-1.045,7.63-1.731,2.775-10.058,10.406-7.63,13.52 1.731,3.124 7.283,3.821 18.036,3.473-2.427,4.158-2.427,6.934 0,8.326 1.731,1.731 9.361,1.731 12.137,0 .696-3.819-3.471-16.652-1.73-18.384 1.383-2.428 10.057,5.203 13.868,4.158 3.123-2.079 4.854-6.934 5.202-14.564-3.811-1.384-7.63-2.777-11.789-4.508z" fill="#fff" fill-rule="evenodd" stroke="#000" stroke-miterlimit="10" stroke-width=".036"/>
 <path d="m306.624,149.929 17.689,3.124c-6.238,2.428-11.093,5.89-13.174,9.014-2.426,2.428-1.74,6.935-1.74,10.754-.348,3.472-1.035,12.137-2.079,13.868-3.123,1.393-9.361-4.158-12.137-4.507-2.775-.348-4.169,1.393-4.169,0-1.382-4.159-6.585-14.564-4.854-16.644 1.044-1.044 6.595,5.203 10.058,6.586 2.088-.687 5.203-4.158 6.595-7.63 2.081-4.159 2.428-9.013 3.811-14.565z" fill="#fff" fill-rule="evenodd" stroke="#000" stroke-miterlimit="10" stroke-width=".036"/>
 <path d="m339.92,156.864c-2.775-2.079-7.281-3.462-10.744-2.775-4.169-.348-10.067,1.045-13.877,4.168-4.854,2.428-8.676,7.979-12.834,13.868l.697,1.045 2.775,4.158c4.507-2.08 9.709-3.124 15.608-6.934 5.891-3.821 11.094-8.327 18.375-13.53z" fill-rule="evenodd" stroke="#000" stroke-miterlimit="10" stroke-width=".036"/>
 <path d="m337.841,156.864c-2.079-1.035-4.507-1.383-7.282-1.035-2.775-.348-5.898-.348-9.361,1.384-3.473.696-9.023,4.507-11.103,7.282-3.472,1.74-5.551,5.551-6.247,7.63 2.775-2.775 5.203-4.507 8.676-6.586 2.426-2.079 8.674-4.854 9.361-4.506-.688-1.045-4.508,2.078-7.283,4.158-2.775,1.382-5.889,3.472-9.361,6.247l-.347,1.383c2.426-2.079 4.505-3.819 7.63-5.203 2.426-1.383 5.898-3.123 9.022-3.81-3.472,2.078-5.899,2.427-8.676,4.854-2.775,1.383-5.201,3.114-7.282,5.202 2.775-2.088 6.238-3.123 9.014-4.516 2.079-1.383 4.507-3.114 7.283-3.811 2.088-2.079 4.516-3.472 7.291-5.551-2.428,1.731-4.516,4.158-6.247,5.898-2.775,1.035-5.204,2.428-7.282,4.159-2.776.696-5.899,3.472-9.361,4.507l.687,1.393c3.473-1.393 9.023-3.473 13.878-6.248 4.506-2.774 11.092-8.324 16.99-12.831z" fill="#fff" fill-rule="evenodd" stroke="#000" stroke-miterlimit="10" stroke-width=".036"/>
 <path d="m215.065,176.292c-.695,2.079-.695,4.507 0,7.282 .691,1.731.691,3.811 2.771,6.238l10.407-3.463c-1.731-2.089-1.384-3.472-1.731-5.551-.696-2.428.695-4.507 1.382-6.247-4.158.349-8.322,1.045-12.829,1.741z" fill-rule="evenodd" stroke="#000" stroke-miterlimit="10" stroke-width=".036"/>
 <path d="m216.796,178.72c-.692.687-.692,3.462 0,4.507 0,1.034 1.039,2.427 1.736,4.158l6.935-2.428c-1.041-.696-1.384-3.123-1.041-3.462-.343-2.089.349-2.089.696-3.819l-8.326,1.044z" fill="#fff" fill-rule="evenodd" stroke="#000" stroke-miterlimit="10" stroke-width=".036"/>
 <path d="m90.897,105.536c-.697,2.08-.697,4.855 0,6.934 .692,1.736.692,3.816 2.775,6.243l10.405-3.467c-1.736-2.079-1.387-3.466-1.736-5.546-.69-2.432.692-4.511 1.389-6.247-4.164.695-8.326,1.387-12.833,2.083z" fill-rule="evenodd" stroke="#000" stroke-miterlimit="10" stroke-width=".036"/>
 <path d="m92.633,107.963c-.696,1.735-.696,2.776 0,4.506 0,1.04 1.04,2.775 1.731,3.816l6.938-2.08c-1.04-1.388-1.387-2.079-1.04-3.466-.347-1.736.343-3.124.692-4.164-2.775.348-5.55.692-8.321,1.388z" fill="#fff" fill-rule="evenodd" stroke="#000" stroke-miterlimit="10" stroke-width=".036"/>
 <path d="m329.515,188.082c1.74,1.731 3.124,3.123 5.551,4.158 1.74.349 4.507,1.393 6.943,1.741l3.114-10.406c-2.428-.348-3.811-1.044-5.551-2.079-1.731-1.741-3.114-2.428-4.158-4.855-1.731,3.811-3.81,7.62-5.899,11.441z" fill-rule="evenodd" stroke="#000" stroke-miterlimit="10" stroke-width=".036"/>
 <path d="m332.291,188.429c1.74.696 1.74,2.079 3.819,2.775 1.035,0 2.428.688 4.159.688l2.427-6.935c-1.73,0-2.427-.348-3.462-1.035s-2.428-1.74-2.775-3.123c-1.393,2.428-2.776,4.855-4.168,7.63z" fill="#fff" fill-rule="evenodd" stroke="#000" stroke-miterlimit="10" stroke-width=".036"/>
 <path d="m297.262,191.892c-2.775-.688-5.202-.688-7.282,0-2.427.696-4.506,1.044-6.246,2.437l3.123,10.396c1.731-.687 3.123-2.079 5.551-1.383 2.079-.696 3.811.696 6.586,1.383-.338-4.159-1.036-8.317-1.732-12.833z" fill-rule="evenodd" stroke="#000" stroke-miterlimit="10" stroke-width=".036"/>
 <path d="m294.835,193.284c-1.731-.695-3.821-.695-4.855,0-1.392,0-3.123,1.045-3.819,1.731l2.089,6.943c1.035-1.044 1.73-1.393 3.462-1.044 1.044-.349 2.428,0 4.168,1.044-.349-2.775-.697-5.55-1.045-8.674z" fill="#fff" fill-rule="evenodd" stroke="#000" stroke-miterlimit="10" stroke-width=".036"/>
 <path d="m200.844,151.313c2.428-.687 4.158-1.731 6.591-3.114 1.731-1.393 2.771-3.124 4.507-5.202l-7.979-7.631c-1.04,1.035-2.427,2.775-4.158,3.811-1.736.348-3.815,1.392-6.243,1.731l7.282,10.405z" fill-rule="evenodd" stroke="#000" stroke-miterlimit="10" stroke-width=".036"/>
 <path d="m202.576,148.885c1.044-.348 2.427-1.383 4.163-1.731 .696-1.382 2.085-2.079 2.775-3.471l-5.202-5.542c-.692.687-2.08,2.08-2.775,2.767-1.04.695-2.775,1.044-3.816,1.044 1.388,2.079 3.123,4.506 4.855,6.933z" fill="#fff" fill-rule="evenodd" stroke="#000" stroke-miterlimit="10" stroke-width=".036"/>
</svg>
